<?xml version="1.0" encoding="UTF-8"?>
<svg id="Calque_1" xmlns="http://www.w3.org/2000/svg" version="1.1" viewBox="0 0 873.6 818">
  <!-- Generator: Adobe Illustrator 30.1.0, SVG Export Plug-In . SVG Version: 2.1.1 Build 136)  -->
  <defs>
    <style>
      .st0 {
        fill: #dda552;
      }
    </style>
  </defs>
  <path class="st0" d="M616.6,621.4l-27.6-25.9c-31.6-29.7-51.8-42.7-95.7-43.6l-20.1-.4c-55.6-1.1-78-26-115.9-59.9-16.6-14.9-32.6-28.9-50.3-42.6-24.1-18.7-53.6-28-84.1-23.3-8.3,1.3-16.2,6.7-20.2,13.8-3.9,6.9-5,14.9-5,22.9l.2,72.4v22.9s0,86.3,0,86.3c0,8.8,0,17.1-.7,25.6-.4,4.4-4.5,6.6-7.8,6.1-3.7-.5-5.7-3.7-5.8-7.6l-.5-17.6-.3-221.9c0-15.9,14.2-28.1,28.5-29,11.9-.8,22.2-.3,33.7.2l20.1.9c14.3.6,27.3,3.6,40.2,10,13.7,6.9,26.1,14.9,38.3,24.3,8.4,6.5,16.5,12.6,24.3,19.8l33,30.7c14.5,13.4,32,23,51.3,27.6,12,2.9,23.7,3,36.1,3l113.5.3c.8-6.3.9-11.3,0-17h-80.6c-50.3-.1-84.9-.8-121.8-39.3-22.2-23.2-47.2-42.3-73.8-60.1-19.2-12.9-41-19.8-64-20.4l-29.6-.8c-12-.3-24-1.4-35.3,2.6-14.1,5-25.3,14.7-31.2,28.4-2.8,6.5-6,13.8-6,21.5v234.4c0,2.7-.9,5.2-1.7,7.8-4.9.3-9.6.3-14.5,0-.5-2.5-1.1-4.6-1.1-7.1l-.2-298.6.2-147.7c0-1.6,1.1-4.6,2.1-5.4,4.3-.4,9.8-.3,15,.4l.4,64.1c.1,21.4,8.5,40.4,24.4,54.8,13.9,12.6,32.4,20.8,51.5,20.9h32.1c11.9.2,22.7,2.1,34.3,4.8,23.1,5.4,44.8,15.5,63.2,30.6,16.7,13.7,32.2,27.4,47.8,42,8.5,8,18.6,12,30.5,11.8,6,0,12.1-1.3,17.2-5,9.5-6.9,17.8-14.2,26.7-22.1,5.6-5,12.8-10.8,20.9-10.8l93.6-.2c.7-5.7.8-10,.7-15.9l-90.6.3c-11.4,0-22.1,4.1-30.6,11.5l-26.4,23c-6.6,5.7-18.3,4-24.7-1.8l-26.9-24.4c33.3-29.7,64-59.4,92.6-92.7,7-8.2,11.1-18.9,11.1-30l-.2-114.1c-5.4-.8-10.2-1.3-15.6-1.5-1.7,2-1.3,5.3-1.3,8l.6,79.8c.2,26.9,2.1,35.5-14.3,54.1-11.4,12.9-21.8,25.7-34.4,37.6l-37,34.8-10.9,10.3c-1.5,1.4-3.8,1.4-5.3,0-4.7-4.6-9.1-8-14.7-11.6-1.1-.7-2.2-3.6-1.2-4.3l18.8-13.6,38.2-29.6c8.3-6.4,13.5-15.1,14.1-26,.8-16.1.7-32,.5-48.5,0-2.3,1.2-4.7,3.1-5.9,11.9-7.2,16.3-21.8,10.5-34.3-5.3-11.6-19.3-18.3-32.5-14-16,5.3-22.9,24.7-14.3,39.1,3.4,5.7,8.9,8.4,15.1,11.7.4,17.3.3,34.6-.3,51.7-.3,7-3.2,11.1-8.4,15.1-18.4,14.1-35.5,29.1-55.1,41.8-6.2,4-15,.6-21.2-2-26.2-11-52.6-17.6-80.9-19-11-.5-21.5-.5-32.3-2-22.3-3.1-44.8-22.8-44.9-47.7l-.3-71c5.1-.6,10.2-.6,14.9.2,1.5,2,2.3,5.8,2.3,8.4.1,15.2-.4,29.7.6,44.9.8,12.8,9.7,23.1,20.8,28.8,15.2,7.9,44.7,4.6,62.9,3.2,13.2-1,25.5-4.5,37.3-9.7,13.5-5.9,23.7-15.2,31.7-27.2,8.3-12.5,12.6-25.8,12.7-41.1v-71.3c-6.4-1.4-11.7-2.4-17.8-3l-1.2,83.3c-.2,17.2-11,32.7-26.1,40.6-14.7,7.6-30.2,10.3-46.6,11.6-12,.9-23.8,1.7-35-2-10.4-3.2-16.7-11.4-16.5-22.2v-70.9c-.1,0-143.3.1-143.3.1v511.1s141.6.2,141.6.2v-123.8s-.2-116.9-.2-116.9c1-4.8,2.9-11.8,8.3-13,23.3-5.5,46.5.7,65.8,14.5,21,15,39.8,31.3,58.7,48.9,12.2,11.4,23.7,22.2,37,32.2,21.8,16.3,47.4,25.6,74.6,25.9l44.9.6c25.1.4,50.7,22.5,67.8,38.7,12,11.4,23.4,22,37.3,33,1.7-6.8,1.5-12.7,1.1-18.9ZM423.3,222.9c0-5.7,4.7-10.4,10.4-10.4s10.4,4.7,10.4,10.4-4.7,10.4-10.4,10.4-10.4-4.7-10.4-10.4ZM118.6,662.9c0,3.7-.1,6.8-1.3,10.3-1,3.2-5.8,2.9-8.3,2.3-2.4-.6-5.1-4-5.1-7.6l-.3-102.7V221.9c0-1.6.8-3.9,1.3-5.1,4.4-.2,8.9-.3,13.7.5v445.6Z"/>
  <path class="st0" d="M761.2,216.3c2.1-.8,9.5-1.4,10.9.5.7,1,2,3.7,2,5.1v105.9s0,252.5,0,252.5v124s24-.5,24-.5V185.1s-144.1,0-144.1,0v107.7c8.8.6,15.8.7,24.3.1l.3-70.9c0-4.5,3.4-7.2,7.2-7.3,2.9,0,7.3,2.9,7.3,7.3l.2,67.7c0,2,2,3.8,3.8,3.8h17.3c1.9-.2,3.8-2.4,3.8-4.8l.2-73.6c6-.5,11-.6,16.5.2l.2,78.9c0,1.7,2.1,3.3,3,3.6,7.3,2.3,13.2,4.7,21.4,7.9v-84.5c.1-1.6.8-4.4,1.9-4.9Z"/>
  <path class="st0" d="M616.8,344.8v143.6c0,7.5.9,14.9,4.4,21.2,4.4,8,12.5,12.4,21.6,12.4l88.9.4c24.3-4.8,21.8-25.8,21.8-46.1v-136.5c0-14.3-10.1-24.9-24.4-25l-85.9-.6c-18.2-.1-26.3,13.5-26.3,30.6ZM726.1,330.6c6.3.3,10.9,4.7,10.9,11.2l-.2,136.5c0,7.5-.2,13.7-.9,21.1-.3,3.3-4.6,6.6-8.1,6.6h-81.3c-7.3,0-13.5-4.7-13.5-12.9l-.3-152.1c0-6.2,4.9-11.2,10.9-11.3,27.7-.4,54.8-.4,82.6.8Z"/>
  <path class="st0" d="M873.1,0h-297.3c-1.6,15.6,7.3,31,23.8,31h244.7c6.3,0,11.5-.6,16.1-2.9,10.3-5.2,15.1-17.2,12.7-28.1Z"/>
  <path class="st0" d="M841.9,785h-213.4c0,0-16.1.4-16.1.4-8.4.1-15.5,4.1-19.8,9.9-5,6.6-5.7,15.3-3.3,22.8h276.1c1.7-9,.9-18.1-5.1-24.6-4.9-5.3-11.1-8.4-18.4-8.4Z"/>
  <path class="st0" d="M272.9,31c15.2,0,25.8-17,22.8-31H.2c-1.5,16.8,7.4,31.1,25.9,31.1h246.9Z"/>
  <path class="st0" d="M261.6,785.1l-109.8-.2-117.8.2c-6.9,0-12.2,3.3-16.7,8.5-5.4,6.2-6.3,15.8-4.5,24.3h271.5c6.1,0,2.7-17.3-.8-22.5-5.4-8-12.7-10.4-21.9-10.4Z"/>
  <path class="st0" d="M247.9,146.1c10.5-4.2,18.9-14,21.9-24.7,6.2-22-10.4-49.3-35.1-49.2l-168.5.2c-10.9,0-22.3,4.2-28.5,13.2-7.9,11.5-9.1,27.4-3.8,40.2,3.7,8.9,11.6,16,20.1,19.7,10.7,4.7,21.9.6,30-6.4,8.3-7.1,10.7-17.7,6.1-26.9-4.5-9.1-14.3-14.1-24.6-11.6-3.6.9-8.3,6.3-4.6,9.1,2.5,1.9,7.6,2.7,9.6,5.5,3.2,4.3,1.6,9.8-2.1,12.7-3.3,2.6-9.3,2.7-13-.8-8.4-7.8-10.1-22.7-2.3-32,3.5-4.2,10.3-5.4,15.9-5.4h161.5c7.5.1,13.5,3.3,17.2,7.7,4.6,5.4,5.7,11.4,4.8,19-.9,8.1-6.6,14.8-14.5,14-3.4-.3-6.8-2.1-8.2-4.5-1.6-2.7-2-7.4.2-9.7,6.3-6.8,13.5-5.6,13.5-11.8,0-6.7-20.5-9.7-30.9,4.5-5,6.8-5.2,16.7-.6,24.1,4,6.4,10.8,11.3,18.3,13.2,5.1,1.2,12.6,2,17.6,0Z"/>
  <path class="st0" d="M844,92.7c-4.5-11.8-16.5-20.2-29.6-20.3l-122.1-.3-48.6.4c-22.8.2-39.2,20.8-37.3,43.4,1.1,13,9.2,25.1,21.3,30.3,7.3,3.2,16.7,1.7,23.4-1.2,10.7-4.8,17.6-14.4,16.7-25.8-.6-7.8-4.5-14-10.8-16.9-6.4-2.9-13.9-3.4-19.5,1.6-1,.9-2.1,4-2,5.3.3,3.6,10,2.3,12.5,9.4,1.3,3.7.4,9-2.8,10.8-8.2,4.5-17.1-.3-20.1-8.4-2.8-7.5-1.9-14.5,2.5-21.2,3.7-5.7,9.3-9.9,17-9.9h167.3c4.5,0,10.8,1.5,13.6,4.8,7,8.5,5.7,20.5.5,28.8-2.6,4.2-6.8,6-11.2,5.7-3.7-.2-8.1-2.9-9.2-6.8-3-10.4,11.7-10.1,13-13.9,1.7-4.7-2.9-8.5-7.5-8.9-8.3-.7-15.3,1.1-20.3,7.4-4.5,5.5-6.1,13.8-2.9,21.3,5.5,12.9,20.5,21.3,34.6,17.6,10.3-2.6,19.1-11.2,22.4-21.2,3.5-10.4,3-21.8-.9-32.1Z"/>
  <path class="st0" d="M395.4,60.6c-10.9,1.3-19.1,9.3-20.3,20.1-1.8,16.2-3.8,48.5,2.8,62.9,3.1,6.6,10.1,9.9,17.1,10.7,14,1.7,27.7,1.8,41.8,1.1,8.9-.4,16.7-3.6,24.2-7.9,15.2-8.8,16.8,5.3,36.3,6.7,15.9,1.1,35.3,2.6,44.4-14.7,4.2-8,4.8-16.6,4.7-25.5-.2-13.5,1.3-41.3-13.2-48.7-5.6-2.8-12.4-3.8-18.9-3.9l-70.9-1.5c-16.4-.4-32-1-48.1.9ZM519.8,74.5c8.6,1.1,13.7,7.8,14.2,16.2.8,12.6,1.1,25.1,0,37.5-.5,5.7-4.4,10.2-9.7,11.6-14.8,3.9-23.8,3.2-34-5.9-8.3-7.4-19.6-9.6-29.5-3.8-11.6,6.8-23.7,9.6-37.4,9-8.7-.4-16.9-2.7-22-10.2-8.9-13.3-11.2-41.1,3-53.1,3.5-3,9.1-3.7,14-3.6l70.9.8c10.4.1,20.4.2,30.4,1.5Z"/>
  <rect class="st0" x="606.1" y="42.1" width="241.1" height="17.9"/>
  <path class="st0" d="M148.8,59.8h112.2c6.1.1,6.7-14.3,4.8-17.6H31.4c-5.9,0-2.1,15.8,1.8,17.7h115.7Z"/>
  <path class="st0" d="M833.2,773.9c2.3,0,4.3-.7,4.4-1.6,1.4-8.2-9.4-17.9-19.9-17.9h-174.4c-9.4,0-17.5,1.9-23.4,9.7-1.9,2.6-3.2,6.4-2.5,9.9h215.6Z"/>
  <path class="st0" d="M63,754c-11.9,0-22.5,7.3-22.2,20h218.5c2.2-14.2-12-19.9-24.8-19.9H63Z"/>
  <path class="st0" d="M226.4,716.5l-153.9.4c-9,0-12.9,12.7-11.1,19.5,4.7,1.1,8.6,1.4,13.6,1.4l134.3-.2,29.6-.7c2-4.1,1.1-10-1.4-14-1.8-2.9-6.2-6.5-11.1-6.5Z"/>
  <path class="st0" d="M369.9,62.4c6.1-12.9,16.2-20.9,29.1-26.1,27.6-11,68.8-12.5,87.5,14.8,3.6,2,10.1,2.1,14.2.9.4-4.1-1.5-8.5-4-11.7-18.5-23.9-49.1-29.8-78.2-28.3-20.2,1.1-38.7,9.7-52,24.8-6.9,7.9-11.8,16.4-13.3,27,6.1.2,11.3-.2,16.7-1.6Z"/>
  <path class="st0" d="M541.4,430.6c-7.8-.4-15.1-.4-23.1,0-5.8.3-12.2,4.5-15.6,8.7-5.1,6-4,12.9-4.5,20.2-.9,11.5,5.9,23.5,18.5,24.6,9.4.8,18.9.4,29.1.3,16.9-6.1,19.2-25.8,14.8-39.4-2.7-8.1-10.4-14-19.1-14.5ZM545.3,464.4c-.4,3.4-3.7,4.4-6.9,4.3l-22.5-.5c-2.2-7.8-2.2-14.3.6-21.7h27.6c1.8,6.2,1.9,11.5,1.1,17.8Z"/>
  <path class="st0" d="M652,159.3c-1.4,4.8-1,9.6,1.1,13.9h143c1.5-.1,3.7-.8,4.2-1.7,1.1-1.9,1.8-10.8.3-14h-18.7s-17.8,0-17.8,0h-17.8s-16.2,0-16.2,0h-16.9s-16.1.1-16.1.1h-18c0,0-20.1-.3-20.1-.3-1.9,0-6.6.2-7.1,2Z"/>
  <rect class="st0" x="77.1" y="157.5" width="148.6" height="15.5"/>
  <path class="st0" d="M748.5,686.9l.8-8.2,6.9-1.6c1.2-1,1.8-6.2.4-7.4-1.4-1.1-5.9-.5-7.1.3l-1.1,7c-3.8.3-8.8.2-12-.5-.3-2.7-.4-5.8-1.5-6.6-1.2-.8-4.5-.9-5.8-.2-1.1.6-1.3,3.2-1.5,5.3-.2,1.4-3.4,2.7-4.8,2-1.1-.5-1.5-2.9-1.3-4.6.3-3.2-2.3-3.9-5.2-3.6-2,.2-3.1,2.7-3,5l.4,10.6c4.8.4,10.3.5,14.2-.2l1.4-5.6c.2-1,4.5-1.1,5.1-.3,1.1,1.4.8,5,.6,7.2l-6.7,1.6-.7,15.1,7.6,1.1v11.7c0,1.2-2.5,3-3.6,2.9-.9,0-2.7-1.3-2.9-2.2l-1.4-5.6-12-.3c-1.4-.2-1.9-5.3-.5-5.8,1.2-.5,3.4-.8,6-1.2.7-3.9.8-10.4-.4-14.8-.5-1.6-6.5-1.5-6.8.3-1,7.5.4,13.1-3,13.9-1.4.3-4.5-.6-4.6-1.9-.1-1.9.2-5.3-1-5.6l-5-1.1c-1.6-.3-1.9-3.4-2.1-6.1-.3-2.4-6.5-2.4-7.8-.4-1.5,2.3-1.4,7.4,1.6,7.7,2,.2,4.4.2,4.9,1.1,1.1,1.8.2,6.3,1.5,6.6l3,.6c1,.2,3.2.1,3.3.9l.6,3.9c.2,1.1.1,2.6.7,2.7l2.4.2c2.8.2,4.5.8,4.4,3.6,0,1.8-2,3.7-4.2,3.6l-10.3-.7c.1-4.6,0-7.2-3.3-7.5-3.6-.4-5.3.8-5.5,4.7-.3,6.8,8,.8,8.2,7.8.1,6.8-8.7-.5-7.9,8.2.3,3,2.2,3.9,6.1,3.4,1.7-.3,2.3-3.3,2.7-6.8.3-2,6.5-1.5,6.7.5.2,3.3.6,5.9,2.4,6.2,2.9.5,5.6-.2,5.8-2.6l.9-12.2c4.3-.4,7.8-.6,12,0,1.8.2,1.8,5.6,0,5.7-3.6.4-5.6,1.2-5.8,3.7-.2,3.2.5,5.3,3.1,5.5,2.7.2,5.1-.4,5.3-2.9.2-2.3.6-4.6,1.8-5,1.4-.5,4.8.3,4.7,1.6-.2,2.1.2,5.4,1.6,5.9,1.7.5,5.2.7,5.8-.6.6-1.5.8-4.8,0-6-.7-1-3.7-1-5.5-1.3-1.7-.3-1.4-5.7.1-6.3,1.5-.5,4.6-1.7,5.6-2.5l.5-13.5,13.7-.5.2-15.8h-8.1c-.3,2.1-.4,6.3-2,6.7l-4.6,1.3c-1.9.5.4,4.8-3.1,7.5-.7.6-3.5-.8-3.5-1.7l.2-13.4,12.4-.6Z"/>
  <path class="st0" d="M366.7,140.8l.3-66.6c-7.3.7-13.9,1.7-20.8,3.5-14.8,4-13.5,30.4-11.6,41.9,2.6,15.8,17.3,22.1,32,21.2Z"/>
  <path class="st0" d="M787.4,146.2l-6.7-13.8c-.4-.9-2.6-2.5-3.6-2.5h-102.3s-7,16.3-7,16.3h119.6Z"/>
  <path class="st0" d="M771.1,117.9c1.4,0,3.8-.4,4.6-.9.4-.2,5.4-14,4.5-16.1h-109.3c0,0,5,17.1,5,17.1h95.2Z"/>
  <polygon class="st0" points="210.2 145.8 201.1 130 99.6 130.1 92.4 145.8 210.2 145.8"/>
  <path class="st0" d="M199,117.5c1-6.6,2.4-10.7,4.5-16.6h-107.1c1.7,6.4,2.7,10.3,4,16.4h98.6Z"/>
  <path class="st0" d="M759.8,596v-60.4c0-8-6,.4-20.6,2.6-3,.4-4.4,2.1-4.4,5v55.8c.1,0,21.2.5,21.2.5,1.3,0,3.8-2.2,3.8-3.5Z"/>
  <path class="st0" d="M718.3,595.4v-56.3s-25-.2-25-.2l-.2,56.5c0,1.2.6,3.6,1.4,4.1.7.4,2.7.7,3.5.7l17.2-.5c1.4,0,3-3,3-4.3Z"/>
  <rect class="st0" x="653.6" y="538.4" width="24.9" height="60.5"/>
  <path class="st0" d="M757.6,619.3h-43.3c0,0,0,42.9,0,42.9h43.3c0,0,0-42.9,0-42.9ZM747.1,652.2l-22.2.2v-23s22.2-.2,22.2-.2v23Z"/>
  <path class="st0" d="M682.5,619.2h-41.9c0,0,0,43.1,0,43.1h41.9c0,0,0-43.1,0-43.1ZM672.6,652.2h-22c0,.1,0-22.9,0-22.9h22s0,22.9,0,22.9Z"/>
  <path class="st0" d="M640.3,735h42.2s0-41.9,0-41.9h-42.2s0,41.9,0,41.9ZM650.8,703.1h21.8c0-.1-.3,22-.3,22l-21.7.4.2-22.4Z"/>
  <path class="st0" d="M818.2,737.1c1.2-3.5,1.2-7.6,0-11.5-2-5.9-6.9-8.8-12.5-8.9l-27.6-.2c-1.2,0-2.9.1-3.4.7-1.2,1.3-.8,16.8-.1,20l43.8-.2Z"/>
  <path class="st0" d="M648.3,684.7c.9-.8,1-3.4,1.5-5.6l6.6-1.9c1.9-.5,1.3-6.7-.1-7.9l-14.6.2c-1.7,2.6-1.6,14.8.3,15.5,1.6.6,5.2.7,6.3-.3Z"/>
  <path class="st0" d="M681.1,685.4c1.9-1.2,1.3-7.7-.7-8.1-1.5-.2-4.6-.1-4.7-1.2l-.7-4.3c-.2-1.3-2.6-2.8-4.2-2.8-1.3,0-4.4,1.5-4.4,3.1v12.9c5.1.5,10,1,14.8.3Z"/>
  <path class="st0" d="M706,635.7c-5-.6-10.5-.6-15.8-.5v13.8c2.3.9,6.1,1.2,7.9.3l1.6-5.6,6.5-.9c1.5-.5,1.7-6.8-.2-7.1Z"/>
  <path class="st0" d="M696.4,669.7c-1.4-.6-5-.9-6,.2-1.1,1.2-1.2,4.8-.9,6.8.3,1.4,3.8,1.4,6,1.8,1.5.2,1.7,3.7,1.9,6.1.8,1.3,6.4,1.3,7.9-.1,1.2-1.1.8-5.9-.2-6.7l-7-1.1c-.1-3-.3-6.2-1.8-6.9Z"/>
  <path class="st0" d="M690.7,627.7c2.2,1.2,6.7.4,7-1.3.3-1.4-.2-4.2-.7-5.7-.4-1.3-4-1.9-5.6-1-2.3,1.2-2.9,6.8-.7,8Z"/>
  <path class="st0" d="M756.7,716.4c.3-1.8.5-4.7-.6-5.7-1-.8-4.6-.8-5.7-.1-1.9,1.2-1.9,7.2.2,7.5,2.5.5,5.9-.2,6.2-1.7Z"/>
  <path class="st0" d="M751.4,734.3c4.1,0,5.9-1.9,5.8-4.9-.2-2.6-2.2-3.7-4.6-3.6-2.8.2-3.7,2.1-3.9,5.6,0,.8,1.5,2.9,2.7,2.9Z"/>
  <path class="st0" d="M702.9,619.4c-1.1.4-2.4,2.1-2.8,3.8-.4,1.6.4,5,1.6,4.9l4.5-.4c1.1,0,1-2.9,1.3-5.4.3-2.6-2.8-3.6-4.6-2.8Z"/>
  <path class="st0" d="M689.3,659.6c.1,1.2,2.3,2.9,3.7,2.8,2.1,0,4.8-1.4,4.9-2.7,0-1.1-.5-3.5-1.2-4.5-.6-.9-3.2-.7-4.9-.4-1.4.2-2.7,3.1-2.5,4.7Z"/>
  <path class="st0" d="M707,655.9c-.1-1.7-4.6-2.2-5.8-1-1,1-1.3,4.4-.5,6.1.6,1.3,4.6,1.7,5.6.6.8-.9.9-3.6.8-5.7Z"/>
  <path class="st0" d="M695.9,474.9l-18.7-.3c-1.8,0-5.6,1.1-6.5,2.5-1.6,4.9-1.5,12.2.9,16.8,5.1,1.2,28,4.1,29.1-2.2,1-6.2,2.4-16.6-4.8-16.7Z"/>
  <path class="st0" d="M671.5,347.2c8.9,1.7,18,1.9,26.8.5,2.9-.5,3.9-9.3.8-9.6-9.4-.8-19.4-.8-28.5-.6-2.3,2-2.2,9.1.9,9.7Z"/>
</svg>